<svg width="65" height="62" viewBox="0 0 65 62" fill="none" xmlns="http://www.w3.org/2000/svg">
<path d="M54.1362 49.89C55.6839 50.1319 57.3518 49.5346 58.3576 48.4046C57.9278 49.1956 53.895 46.4196 53.2329 45.887C52.3794 45.2172 51.9106 44.0712 50.7005 44.4183C49.9332 44.6201 49.2239 45.1529 48.8091 45.8389C48.2461 46.8236 48.6137 47.2028 49.4822 47.7677C50.7914 48.9379 52.4854 49.6318 54.1362 49.89Z" fill="#9BB554"/>
<path d="M19.8381 11.4222C20.497 8.29668 20.6216 5.94855 18.1457 3.30103C15.0212 0.0138962 5.97851 -1.0785 7.23124 5.68239C7.72712 8.12765 9.70305 9.83595 11.0283 11.6577C12.2502 13.4632 12.8796 15.7142 13.5392 17.7545C14.3453 20.2484 14.4577 22.4183 16.4035 24.3372C17.6123 25.4949 19.3965 27.0656 21.1717 26.4825C25.4913 25.1138 19.8437 20.2479 19.1992 18.1023C18.4512 15.9404 19.33 13.495 19.8381 11.4222Z" fill="#9BB554"/>
<path d="M54.0978 39.6789C55.8165 42.4179 57.2987 45.3348 54.0322 47.5087C50.5141 49.9653 45.6642 48.4547 42.3047 46.8551C34.0824 43.0984 25.3438 39.2609 20.6607 30.6881C18.8989 27.5127 17.4488 23.6342 17.6805 19.8042C17.9273 15.869 20.7255 17.7031 23.3816 17.5816C24.5472 17.5492 25.6827 17.7269 26.8484 17.6945C28.2355 17.5893 29.4012 17.5569 30.7281 17.872C34.7091 18.817 37.6967 21.5399 40.7875 24.2788C45.9239 28.9489 53.4195 34.0954 54.7131 41.2787" fill="#738841"/>
<path d="M32.0967 37.8284C36.4405 41.4093 41.6856 44.594 47.2316 45.6768C52.7775 46.7596 55.4746 42.6689 55.6653 37.6487C55.7316 34.9728 54.6901 32.6609 53.3388 30.3005C49.9757 24.2943 44.3688 18.4742 37.689 16.4618C31.9235 14.6999 19.8749 17.0049 21.4766 24.9918C22.568 30.6424 27.8411 34.3687 32.0967 37.8284Z" fill="#9BB554"/>
<path d="M32.4026 16.7883C32.5058 16.8045 32.5058 16.8045 32.4026 16.7883C34.4241 16.675 36.3122 16.7557 37.7273 17.1919C38.994 17.927 40.2307 18.8721 41.0094 20.0678C41.3621 20.5526 41.5966 21.1262 41.4031 21.7402C41.1946 22.4593 40.5883 23.0087 39.9088 23.332C39.6722 23.5097 39.4508 23.5825 39.126 23.639C38.8013 23.6956 38.3583 23.8411 38.1519 23.8088C38.0486 23.7926 38.0487 23.7926 37.9304 23.8815C37.3992 23.9058 36.8681 23.9301 36.3519 23.8493C35.3197 23.6878 33.9777 23.4779 33.2422 22.7185C32.1538 21.4743 29.8329 17.7823 32.4026 16.7883Z" fill="#C1CC64"/>
<path d="M41.9702 23.4259C42.431 22.4222 42.4782 21.3537 42.3187 20.2529C42.674 19.9858 42.9992 19.9291 43.4126 19.9938C44.9461 21.0945 46.3612 22.2843 47.6578 23.5631C47.996 24.1539 48.2008 24.9391 48.1104 25.5704C47.8564 26.6065 46.657 27.6022 45.6815 27.7723C44.3807 27.999 43.2155 27.2787 42.5241 26.2022C42.1859 25.6114 41.9812 24.8262 41.8648 24.1625C41.8949 23.9521 41.9251 23.7416 41.9702 23.4259C41.9552 23.5311 41.9552 23.5311 41.9702 23.4259Z" fill="#C1CC64"/>
<path d="M46.1461 44.0292C45.0993 43.9728 43.9945 43.5855 42.9778 43.3193C42.477 43.1338 40.0159 42.6418 39.7084 41.843C39.8266 41.7542 39.9448 41.6654 40.048 41.6815C40.048 41.6815 40.1512 41.6977 40.1662 41.5928C41.3161 41.6653 42.4961 41.528 43.4847 41.2536C44.1489 41.0357 44.813 40.8178 45.404 40.3739C45.3869 41.2293 45.473 42.1007 45.9869 42.9318C46.2513 43.2949 46.4125 43.6418 46.7952 43.9162C46.6769 44.0049 46.4556 44.0776 46.1461 44.0292Z" fill="#C1CC64"/>
<path d="M42.6894 40.3614C42.5861 40.3452 42.4829 40.3291 42.3796 40.3129C41.6416 40.3049 40.9768 40.5233 40.2388 40.5152C39.3975 40.491 38.5713 40.3618 37.7902 39.9171C37.0973 39.5937 36.3313 39.0438 35.7567 38.6315C35.2855 38.2353 35.3026 37.3782 35.3778 36.8526C35.3798 36.1006 35.7499 35.7285 36.0617 35.025C36.522 34.0223 37.4987 33.1004 38.4303 32.4939C39.9234 31.6528 42.3179 30.4154 43.9533 31.5311C44.0265 31.7576 44.1147 31.8788 44.2912 32.1214C44.9519 33.4071 46.129 34.7735 47.5449 35.2101C46.5682 36.132 45.9595 37.4339 45.6606 38.7844C45.5573 38.7682 45.439 38.8571 45.4089 39.0674C45.125 40.3127 43.8556 40.329 42.6894 40.3614Z" fill="#C1CC64"/>
<path d="M27.3403 29.8081C27.8894 28.9256 28.5269 28.1646 29.3711 27.436C30.2154 26.7073 31.0295 26.1892 32.0503 25.7034C32.5091 25.4524 33.1014 25.0071 33.4396 25.598C33.7046 25.9623 33.5259 26.4723 33.5841 26.8042C33.6704 27.6785 33.7717 28.4475 34.0799 29.249C34.2997 29.929 34.5345 30.5037 34.8728 31.0946C35.211 31.6856 35.6828 32.0822 36.021 32.6732C36.5359 33.5069 35.7951 34.2517 35.3795 34.9399C34.9639 35.628 34.5482 36.3162 34.221 37.1257C33.4068 37.6439 31.1815 35.4664 30.7098 35.0698C30.0613 34.4303 29.2794 33.9851 28.5126 33.4347C27.7607 32.779 26.8172 31.9858 26.8645 30.9172L26.8795 30.8119C26.9398 30.391 27.0883 30.0914 27.3403 29.8081Z" fill="#C1CC64"/>
<path d="M30.144 17.1102C30.3357 17.2478 30.5275 17.3854 30.6007 17.6121C30.2282 18.7376 30.7412 20.3244 31.3294 21.385C31.5944 21.7493 31.7561 22.0974 32.1245 22.4779C32.1245 22.4779 32.1245 22.4779 32.1094 22.5831C32.0944 22.6884 32.1978 22.7046 32.2861 22.826C32.2711 22.9313 32.3745 22.9474 32.3594 23.0527C32.4477 23.1741 32.5361 23.2956 32.6244 23.417C32.8011 23.6599 32.771 23.8704 32.6224 24.17C32.5039 24.259 32.4888 24.3643 32.5772 24.4857C32.3402 24.6639 31.9999 24.8258 31.778 24.8987C30.7419 25.4898 29.6174 25.9595 28.758 26.7935C28.1506 27.3441 27.6466 27.9109 27.1275 28.5829C27.0241 28.5667 27.009 28.672 27.009 28.672C26.6235 29.1497 25.9407 30.2265 25.1888 29.5708C24.6286 29.0527 24.3054 28.3564 23.9671 27.7654C23.4521 26.9315 22.8337 26.0815 22.4372 25.1585C22.3488 25.0371 22.379 24.8266 22.2906 24.7051C21.9626 20.3494 25.9002 17.9526 30.144 17.1102Z" fill="#C1CC64"/>
<path d="M34.9843 24.3066C35.3975 24.3713 35.9139 24.4521 36.3271 24.5168C36.9469 24.6138 37.685 24.6218 38.3348 24.5085L38.4381 24.5247C38.763 24.4681 39.1913 24.4276 39.5312 24.2658C40.1811 24.1525 40.9342 24.0554 40.9924 24.387C40.9773 24.4921 41.0656 24.6135 41.1689 24.6296C41.2701 25.398 41.5779 26.1986 42.0192 26.8051C42.3721 27.2904 42.7402 27.6705 43.2266 27.9616C43.388 28.3093 43.5645 28.552 43.6076 28.9887C43.4441 29.3931 43.3839 29.8137 42.9406 29.9593C42.8223 30.0483 42.719 30.0321 42.7039 30.1372C41.0212 30.0888 39.2029 30.9867 37.9313 31.7551C37.6946 31.9331 37.4579 32.111 37.2363 32.1838C35.7902 31.9575 35.0281 29.9033 34.5589 28.7549C34.2962 27.6388 33.7708 25.4066 34.9843 24.3066Z" fill="#C1CC64"/>
<path d="M48.2891 35.6241C48.4076 35.535 48.4077 35.535 48.4227 35.4297C49.6792 35.5187 51.0111 35.0813 51.9593 34.3685L52.0778 34.2794C52.4334 34.0121 52.9075 33.6557 53.2781 33.2831C53.5001 33.2102 53.707 33.2426 54.0023 33.3965C54.4573 34.6517 54.7053 35.8746 54.7162 37.2757C54.6519 39.2032 54.1887 40.9607 53.2536 42.3214C53.0316 42.3943 52.898 42.5886 52.7794 42.6777C52.6609 42.7668 52.6459 42.8721 52.6308 42.9774C52.1416 43.4391 51.6524 43.9007 50.9865 44.1195C49.9951 44.3949 49.0942 44.0386 48.0597 43.8767L47.9562 43.8605C47.5725 43.5852 47.2039 43.2046 46.9539 42.7349C46.2619 41.6578 46.3092 40.5888 46.5784 39.4468C46.6859 37.9566 47.2957 36.6527 48.2891 35.6241Z" fill="#C1CC64"/>
<path d="M44.6404 29.6551C44.6856 29.3395 44.7609 28.8136 45.1893 28.7731C45.2926 28.7893 45.3076 28.6841 45.411 28.7003C45.5143 28.7165 45.6327 28.6275 45.736 28.6436C46.7112 28.4736 47.8649 27.7939 48.4137 26.9119C48.4137 26.9119 48.4137 26.9119 48.4287 26.8067C48.6956 26.4184 49.0658 26.0461 49.6557 26.3535C49.759 26.3697 49.759 26.3697 49.8623 26.3859C50.2305 26.7661 50.4803 27.2354 50.7451 27.5995C51.2747 28.3276 51.8044 29.0558 52.2307 29.7678C52.6571 30.4798 52.965 31.2807 52.5346 32.0737C52.5195 32.1789 52.5045 32.2841 52.4894 32.3892C52.3259 32.7938 52.0741 33.077 51.8222 33.3602C51.5855 33.5382 51.3487 33.7163 51.127 33.7891C51.0086 33.8781 51.0086 33.8781 50.9936 33.9833C49.9582 34.574 48.5397 34.8897 47.375 34.1697C46.2103 33.4497 45.0326 32.0824 44.6966 30.7393C44.6384 30.4076 44.5803 30.0758 44.5221 29.7441C44.507 29.8493 44.6254 29.7603 44.6404 29.6551Z" fill="#C1CC64"/>
<path d="M19.0852 7.83126C19.1736 7.9527 19.2619 8.07413 19.2469 8.17938C19.2167 8.3899 18.8914 8.44661 18.6997 8.30898C18.5079 8.17136 18.4497 7.83939 18.4798 7.62888C18.4949 7.52363 18.5099 7.41838 18.6284 7.32931C18.7469 7.24024 18.8352 7.36165 18.9236 7.48309C19.027 7.49928 19.1154 7.62074 19.0852 7.83126C19.2037 7.74218 19.2037 7.74218 19.0852 7.83126C19.1886 7.84744 19.1886 7.84744 19.0852 7.83126C19.1886 7.84744 19.1736 7.9527 19.1736 7.9527C19.2619 8.07415 19.2318 8.28465 19.1133 8.37372C18.9948 8.46279 18.788 8.43043 18.6997 8.30898C18.6113 8.18754 18.6264 8.08227 18.523 8.06609L18.538 7.96082C18.538 7.96082 18.5531 7.85557 18.538 7.96082C18.7599 7.88794 18.8784 7.79889 19.0852 7.83126C19.0852 7.83126 19.0852 7.83126 19.0702 7.93652C19.1154 7.62075 19.1003 7.726 19.0852 7.83126C19.1003 7.726 19.1003 7.726 19.0852 7.83126C19.1886 7.84744 19.0852 7.83126 19.0852 7.83126C19.1886 7.84744 19.0852 7.83126 19.0852 7.83126C19.0852 7.83126 19.1736 7.9527 19.0852 7.83126C19.0852 7.83126 19.1886 7.84744 19.0852 7.83126C18.9818 7.81507 18.9818 7.81507 18.8784 7.79888C18.775 7.7827 18.7599 7.88796 18.6565 7.87178C18.6415 7.97704 18.6415 7.97702 18.6264 8.08227C18.6264 8.08227 18.6113 8.18754 18.7147 8.20372C18.6264 8.08228 18.5531 7.85559 18.6716 7.76652C18.7901 7.67744 18.9969 7.70981 19.0852 7.83126Z" fill="#738841"/>
<path d="M18.8669 9.31477C18.7335 9.50903 18.7335 9.50903 18.8669 9.31477C18.6602 9.28241 18.4535 9.25006 18.2317 9.32292L18.2467 9.21769C18.4535 9.25005 18.6602 9.28241 18.8669 9.31477C18.7485 9.40381 18.7485 9.40381 18.8669 9.31477C18.6 9.7033 18.1132 9.41195 18.3652 9.12864C18.4103 8.81297 18.8088 8.98292 18.8669 9.31477C18.8519 9.41999 18.8368 9.52523 18.8368 9.52523C18.6883 9.82471 18.3932 9.67095 18.32 9.44433C18.2317 9.32293 18.3501 9.23386 18.3652 9.12864C18.307 8.79679 18.9121 8.9991 18.8669 9.31477Z" fill="#738841"/>
<path d="M17.9114 8.62566C18.0148 8.64185 18.1183 8.65805 18.1183 8.65805C18.1334 8.55275 18.1183 8.65805 18.1183 8.65805C18.1334 8.55275 18.1183 8.65805 18.1183 8.65805C18.1032 8.76334 17.9696 8.95773 17.8661 8.94154C17.7627 8.92535 17.5708 8.78769 17.5859 8.68239C17.601 8.5771 17.6311 8.36651 17.6462 8.26122C17.6613 8.15592 17.7647 8.1721 17.7798 8.0668C17.8983 7.9777 18.0018 7.99388 18.1053 8.01008C18.2088 8.02627 18.2821 8.25306 18.267 8.35836C18.2218 8.67425 18.1032 8.76334 17.9114 8.62566Z" fill="#738841"/>
<path d="M14.5545 5.67635C15.1348 5.65132 15.5816 5.15731 15.5525 4.57295C15.5234 3.98858 15.0294 3.53514 14.4491 3.56016C13.8688 3.58518 13.422 4.07919 13.4511 4.66356C13.4802 5.24793 13.9743 5.70137 14.5545 5.67635Z" fill="#6C6C6C"/>
</svg>
