<svg width="1614" height="110" viewBox="0 0 1614 110" fill="none" xmlns="http://www.w3.org/2000/svg">
<path d="M1346.57 34H806V84.8497C806.313 84.8497 806.581 84.8497 806.893 84.8497C824.132 84.8497 832.841 91.26 841.282 97.4105C849.767 103.648 857.806 109.538 874.286 109.538C890.721 109.538 898.76 103.648 907.29 97.4105C915.731 91.2167 924.44 84.8497 941.679 84.8497C958.918 84.8497 967.626 91.26 976.068 97.4105C984.554 103.648 992.592 109.538 1009.07 109.538C1025.55 109.538 1033.55 103.648 1042.08 97.4105C1050.52 91.2167 1059.23 84.8497 1076.46 84.8497C1093.7 84.8497 1102.41 91.26 1110.85 97.4105C1119.34 103.648 1127.38 109.538 1143.86 109.538C1160.29 109.538 1168.33 103.648 1176.86 97.4105C1185.3 91.2167 1194.01 84.8497 1211.25 84.8497C1228.49 84.8497 1237.2 91.26 1245.64 97.4105C1254.12 103.648 1262.16 109.538 1278.64 109.538C1295.08 109.538 1303.12 103.648 1311.65 97.4105C1320.09 91.2167 1328.8 84.8497 1346.04 84.8497C1346.3 84.8497 1346.53 84.8497 1346.8 84.8497C1363.54 85.0229 1372.12 91.3466 1380.42 97.4105C1388.91 103.648 1396.95 109.538 1413.43 109.538C1429.86 109.538 1437.9 103.648 1446.43 97.4105C1454.87 91.2167 1463.58 84.8497 1480.82 84.8497C1498.06 84.8497 1506.77 91.26 1515.21 97.4105C1523.7 103.648 1531.73 109.538 1548.21 109.538C1564.69 109.538 1572.69 103.648 1581.22 97.4105C1589.39 91.4333 1597.83 85.2395 1614 84.8497V34H1346.57Z" fill="#D4CAC0"/>
<path d="M1346.57 17H806V67.8497C806.313 67.8497 806.581 67.8497 806.893 67.8497C824.132 67.8497 832.841 74.26 841.282 80.4105C849.767 86.6476 857.806 92.5382 874.286 92.5382C890.721 92.5382 898.76 86.6476 907.29 80.4105C915.731 74.2167 924.44 67.8497 941.679 67.8497C958.918 67.8497 967.626 74.26 976.068 80.4105C984.554 86.6476 992.592 92.5382 1009.07 92.5382C1025.55 92.5382 1033.55 86.6476 1042.08 80.4105C1050.52 74.2167 1059.23 67.8497 1076.46 67.8497C1093.7 67.8497 1102.41 74.26 1110.85 80.4105C1119.34 86.6476 1127.38 92.5382 1143.86 92.5382C1160.29 92.5382 1168.33 86.6476 1176.86 80.4105C1185.3 74.2167 1194.01 67.8497 1211.25 67.8497C1228.49 67.8497 1237.2 74.26 1245.64 80.4105C1254.12 86.6476 1262.16 92.5382 1278.64 92.5382C1295.08 92.5382 1303.12 86.6476 1311.65 80.4105C1320.09 74.2167 1328.8 67.8497 1346.04 67.8497C1346.3 67.8497 1346.53 67.8497 1346.8 67.8497C1363.54 68.0229 1372.12 74.3466 1380.42 80.4105C1388.91 86.6476 1396.95 92.5382 1413.43 92.5382C1429.86 92.5382 1437.9 86.6476 1446.43 80.4105C1454.87 74.2167 1463.58 67.8497 1480.82 67.8497C1498.06 67.8497 1506.77 74.26 1515.21 80.4105C1523.7 86.6476 1531.73 92.5382 1548.21 92.5382C1564.69 92.5382 1572.69 86.6476 1581.22 80.4105C1589.39 74.4333 1597.83 68.2395 1614 67.8497V17H1346.57Z" fill="white"/>
<path d="M1346.57 0H806V50.8497C806.313 50.8497 806.581 50.8497 806.893 50.8497C824.132 50.8497 832.841 57.26 841.282 63.4105C849.767 69.6476 857.806 75.5382 874.286 75.5382C890.721 75.5382 898.76 69.6476 907.29 63.4105C915.731 57.2167 924.44 50.8497 941.679 50.8497C958.918 50.8497 967.626 57.26 976.068 63.4105C984.554 69.6476 992.592 75.5382 1009.07 75.5382C1025.55 75.5382 1033.55 69.6476 1042.08 63.4105C1050.52 57.2167 1059.23 50.8497 1076.46 50.8497C1093.7 50.8497 1102.41 57.26 1110.85 63.4105C1119.34 69.6476 1127.38 75.5382 1143.86 75.5382C1160.29 75.5382 1168.33 69.6476 1176.86 63.4105C1185.3 57.2167 1194.01 50.8497 1211.25 50.8497C1228.49 50.8497 1237.2 57.26 1245.64 63.4105C1254.12 69.6476 1262.16 75.5382 1278.64 75.5382C1295.08 75.5382 1303.12 69.6476 1311.65 63.4105C1320.09 57.2167 1328.8 50.8497 1346.04 50.8497C1346.3 50.8497 1346.53 50.8497 1346.8 50.8497C1363.54 51.0229 1372.12 57.3466 1380.42 63.4105C1388.91 69.6476 1396.95 75.5382 1413.43 75.5382C1429.86 75.5382 1437.9 69.6476 1446.43 63.4105C1454.87 57.2167 1463.58 50.8497 1480.82 50.8497C1498.06 50.8497 1506.77 57.26 1515.21 63.4105C1523.7 69.6476 1531.73 75.5382 1548.21 75.5382C1564.69 75.5382 1572.69 69.6476 1581.22 63.4105C1589.39 57.4333 1597.83 51.2395 1614 50.8497V0H1346.57Z" fill="#204379"/>
<path d="M540.572 34H0V84.8497C0.312624 84.8497 0.580588 84.8497 0.893212 84.8497C18.1322 84.8497 26.841 91.26 35.2819 97.4105C43.7673 103.648 51.8063 109.538 68.286 109.538C84.7212 109.538 92.7601 103.648 101.29 97.4105C109.731 91.2167 118.44 84.8497 135.679 84.8497C152.918 84.8497 161.626 91.26 170.068 97.4105C178.554 103.648 186.592 109.538 203.071 109.538C219.551 109.538 227.546 103.648 236.076 97.4105C244.516 91.2167 253.225 84.8497 270.465 84.8497C287.704 84.8497 296.413 91.26 304.853 97.4105C313.339 103.648 321.378 109.538 337.858 109.538C354.293 109.538 362.331 103.648 370.862 97.4105C379.302 91.2167 388.011 84.8497 405.25 84.8497C422.49 84.8497 431.199 91.26 439.639 97.4105C448.125 103.648 456.163 109.538 472.644 109.538C489.078 109.538 497.117 103.648 505.647 97.4105C514.089 91.2167 522.797 84.8497 540.036 84.8497C540.304 84.8497 540.528 84.8497 540.795 84.8497C557.543 85.0229 566.117 91.3466 574.425 97.4105C582.91 103.648 590.949 109.538 607.429 109.538C623.864 109.538 631.903 103.648 640.433 97.4105C648.874 91.2167 657.582 84.8497 674.821 84.8497C692.061 84.8497 700.77 91.26 709.21 97.4105C717.696 103.648 725.735 109.538 742.215 109.538C758.694 109.538 766.688 103.648 775.218 97.4105C783.391 91.4333 791.833 85.2395 808 84.8497V34H540.572Z" fill="#D4CAC0"/>
<path d="M540.572 17H0V67.8497C0.312624 67.8497 0.580588 67.8497 0.893212 67.8497C18.1322 67.8497 26.841 74.26 35.2819 80.4105C43.7673 86.6476 51.8063 92.5382 68.286 92.5382C84.7212 92.5382 92.7601 86.6476 101.29 80.4105C109.731 74.2167 118.44 67.8497 135.679 67.8497C152.918 67.8497 161.626 74.26 170.068 80.4105C178.554 86.6476 186.592 92.5382 203.071 92.5382C219.551 92.5382 227.546 86.6476 236.076 80.4105C244.516 74.2167 253.225 67.8497 270.465 67.8497C287.704 67.8497 296.413 74.26 304.853 80.4105C313.339 86.6476 321.378 92.5382 337.858 92.5382C354.293 92.5382 362.331 86.6476 370.862 80.4105C379.302 74.2167 388.011 67.8497 405.25 67.8497C422.49 67.8497 431.199 74.26 439.639 80.4105C448.125 86.6476 456.163 92.5382 472.644 92.5382C489.078 92.5382 497.117 86.6476 505.647 80.4105C514.089 74.2167 522.797 67.8497 540.036 67.8497C540.304 67.8497 540.528 67.8497 540.795 67.8497C557.543 68.0229 566.117 74.3466 574.425 80.4105C582.91 86.6476 590.949 92.5382 607.429 92.5382C623.864 92.5382 631.903 86.6476 640.433 80.4105C648.874 74.2167 657.582 67.8497 674.821 67.8497C692.061 67.8497 700.77 74.26 709.21 80.4105C717.696 86.6476 725.735 92.5382 742.215 92.5382C758.694 92.5382 766.688 86.6476 775.218 80.4105C783.391 74.4333 791.833 68.2395 808 67.8497V17H540.572Z" fill="white"/>
<path d="M540.572 0H0V50.8497C0.312624 50.8497 0.580588 50.8497 0.893212 50.8497C18.1322 50.8497 26.841 57.26 35.2819 63.4105C43.7673 69.6476 51.8063 75.5382 68.286 75.5382C84.7212 75.5382 92.7601 69.6476 101.29 63.4105C109.731 57.2167 118.44 50.8497 135.679 50.8497C152.918 50.8497 161.626 57.26 170.068 63.4105C178.554 69.6476 186.592 75.5382 203.071 75.5382C219.551 75.5382 227.546 69.6476 236.076 63.4105C244.516 57.2167 253.225 50.8497 270.465 50.8497C287.704 50.8497 296.413 57.26 304.853 63.4105C313.339 69.6476 321.378 75.5382 337.858 75.5382C354.293 75.5382 362.331 69.6476 370.862 63.4105C379.302 57.2167 388.011 50.8497 405.25 50.8497C422.49 50.8497 431.199 57.26 439.639 63.4105C448.125 69.6476 456.163 75.5382 472.644 75.5382C489.078 75.5382 497.117 69.6476 505.647 63.4105C514.089 57.2167 522.797 50.8497 540.036 50.8497C540.304 50.8497 540.528 50.8497 540.795 50.8497C557.543 51.0229 566.117 57.3466 574.425 63.4105C582.91 69.6476 590.949 75.5382 607.429 75.5382C623.864 75.5382 631.903 69.6476 640.433 63.4105C648.874 57.2167 657.582 50.8497 674.821 50.8497C692.061 50.8497 700.77 57.26 709.21 63.4105C717.696 69.6476 725.735 75.5382 742.215 75.5382C758.694 75.5382 766.688 69.6476 775.218 63.4105C783.391 57.4333 791.833 51.2395 808 50.8497V0H540.572Z" fill="#204379"/>
</svg>
